<svg width="25" height="99" viewBox="0 0 25 99" fill="none" xmlns="http://www.w3.org/2000/svg">
<path fill-rule="evenodd" clip-rule="evenodd" d="M6 5.65946C6 2.53059 9.13 0 13 0C16.87 0 20 2.53059 20 5.65946C20 9.03088 15.58 13.6797 13.77 15.4503C13.37 15.8384 12.64 15.8384 12.24 15.4503C10.42 13.6797 6 9.03088 6 5.65946ZM10.5 5.65947C10.5 6.77519 11.62 7.6807 13 7.6807C14.38 7.6807 15.5 6.77519 15.5 5.65947C15.5 4.54374 14.38 3.63823 13 3.63823C11.62 3.63823 10.5 4.54374 10.5 5.65947Z" fill="white"/>
<path fill-rule="evenodd" clip-rule="evenodd" d="M22.2037 52.9041L19.6637 52.6696C19.0537 52.613 18.4537 52.7828 18.0237 53.1304L16.1837 54.6181C13.3537 53.4538 11.0337 51.5862 9.59367 49.2901L11.4437 47.7944C11.8737 47.4467 12.0837 46.9616 12.0137 46.4684L11.7237 44.431C11.6037 43.6145 10.7537 43 9.73367 43H8.00367C6.87367 43 5.93367 43.76 6.00367 44.6736C6.53367 51.5781 13.3637 57.0921 21.8937 57.5206C23.0237 57.5772 23.9637 56.8172 23.9637 55.9036V54.5049C23.9737 53.6883 23.2137 53.0011 22.2037 52.9041Z" fill="white"/>
<path d="M22 85H3C1.89543 85 1 85.724 1 86.617V96.3189C1 97.212 1.89543 97.9359 3 97.9359H22C23.1046 97.9359 24 97.212 24 96.3189V86.617C24 85.724 23.1046 85 22 85Z" stroke="white" stroke-linecap="round" stroke-linejoin="round"/>
<path d="M23.4118 85.4707L12.5008 92.6809L1.58984 85.4707" stroke="white" stroke-linecap="round" stroke-linejoin="round"/>
</svg>
