<svg width="21" height="21" viewBox="0 0 21 21" fill="none" xmlns="http://www.w3.org/2000/svg">
<path d="M0.833984 6.4719H4.86176V20.1663H0.833984V6.4719ZM2.83579 4.86079H2.81323C1.61135 4.86079 0.833984 3.96501 0.833984 2.84609C0.833984 1.70301 1.63551 0.833008 2.85915 0.833008C4.0844 0.833008 4.83921 1.70301 4.86176 2.84609C4.86176 3.9642 4.0844 4.86079 2.83579 4.86079ZM20.1673 20.1663H16.1395V12.8366C16.1395 11.066 15.1527 9.85765 13.5682 9.85765C12.3591 9.85765 11.705 10.6729 11.3876 11.4607C11.2716 11.7426 11.3062 12.5224 11.3062 12.9163V20.1663H7.27843V6.4719H11.3062V8.57923C11.887 7.68023 12.7965 6.4719 15.1229 6.4719C18.0052 6.4719 20.1665 8.2844 20.1665 12.3315L20.1673 20.1663Z" fill="white"/>
</svg>
