<svg width="25" height="21" viewBox="0 0 25 21" fill="none" xmlns="http://www.w3.org/2000/svg">
<path d="M24.1408 0.870476C23.156 1.33568 21.4801 2.2081 20.6379 2.37485C20.6052 2.38331 20.5787 2.39418 20.5472 2.40264C19.5649 1.43356 18.2188 0.833017 16.7289 0.833017C13.7262 0.833017 11.2914 3.26781 11.2914 6.27052C11.2914 6.42881 11.2781 6.72002 11.2914 6.87468C7.40299 6.87468 4.56341 4.84589 2.43795 2.23831C2.15399 1.88789 1.85191 2.07035 1.78907 2.31927C1.6477 2.88235 1.59937 3.82364 1.59937 4.49548C1.59937 6.18835 2.92249 7.85102 4.9827 8.88173C4.60328 8.9796 4.1852 9.04968 3.7502 9.04968C3.23787 9.04968 2.6482 8.91556 2.13224 8.64489C1.94132 8.5446 1.52928 8.57239 1.65132 9.06056C2.1407 11.0168 4.3737 12.3907 6.36866 12.7907C5.91553 13.0577 4.94887 13.0033 4.5042 13.0033C4.33987 13.0033 3.76832 12.9647 3.39857 12.9188C3.06145 12.8777 2.54307 12.9647 2.97687 13.622C3.90849 15.0321 6.01582 15.9178 7.82953 15.9517C6.15962 17.2615 3.42878 17.74 0.812741 17.74C0.283491 17.7279 0.310074 18.3309 0.736616 18.5544C2.66632 19.567 5.82732 20.1663 8.0857 20.1663C17.0636 20.1663 22.1664 13.3236 22.1664 6.87347C22.1664 6.76956 22.164 6.55206 22.1604 6.33335C22.1604 6.3116 22.1664 6.29106 22.1664 6.26931C22.1664 6.23668 22.1567 6.20527 22.1567 6.17264C22.1531 6.00831 22.1495 5.85485 22.1459 5.7751C22.8576 5.26156 23.9475 4.36981 24.4985 3.6871C24.6858 3.4551 24.5347 3.17356 24.2798 3.26177C23.6237 3.49014 22.489 3.93239 21.7785 4.01698C23.2007 3.07568 23.904 2.25643 24.5082 1.34656C24.7148 1.03602 24.4562 0.720642 24.1408 0.870476Z" fill="white"/>
</svg>
